<svg width="327" height="150" viewBox="0 0 327 150" fill="none" xmlns="http://www.w3.org/2000/svg">
<g clip-path="url(#clip0)">
<path d="M144.142 149.994C144.897 149.994 145.658 149.848 146.383 149.548C148.573 148.641 150 146.504 150 144.135L149.997 75.7094C150.46 8.71388 68.9315 -25.3488 21.6999 22.1342C-25.0306 69.5489 8.70784 150.053 75.3559 149.994C87.1616 149.994 98.4317 147.346 108.853 142.124C118.811 137.133 130.867 139.146 138.853 147.132L139.999 148.278C141.119 149.398 142.618 149.994 144.142 149.994ZM120.335 127.687C114.646 127.687 108.922 128.982 103.603 131.648C94.8101 136.055 85.2797 138.286 75.2897 138.276C19.2855 138.359 -9.4144 69.9473 30.026 30.3789C70.0321 -9.65676 138.57 19.0191 138.28 75.6247C138.28 75.6435 138.279 75.6625 138.279 75.6813L138.282 132.238C132.73 129.236 126.554 127.687 120.335 127.687Z" fill="#FF337C"/>
<path d="M97.8 42.8C96.4 44.3333 94.9 46.1 93.3 48.1C91.7667 50.1 89.1667 53.9 85.5 59.5C81.9 65.0333 80.1 68.3 80.1 69.3L80.3 70C88.3667 88.6667 95.3667 99.5333 101.3 102.6C102.033 102.867 102.4 103.267 102.4 103.8C102.4 105 100.567 106.267 96.9 107.6C94.7667 108.333 92.8333 108.7 91.1 108.7C89.4333 108.7 88.2333 108.533 87.5 108.2C86.8333 107.867 86.1333 107.267 85.4 106.4C84.6667 105.533 84 104.667 83.4 103.8C82.8667 102.867 82.1333 101.467 81.2 99.6C80.3333 97.7333 79.5333 96.0333 78.8 94.5C78.1333 92.9 77.1667 90.6667 75.9 87.8C74.6333 84.9333 73.4667 82.3333 72.4 80C72.2 79.6667 71.9667 79.5 71.7 79.5C71.4333 79.5 71.1667 79.7 70.9 80.1C65.7667 88.7667 61.8667 96.9333 59.2 104.6C58.8667 106.067 57.4 107.3 54.8 108.3C52.2 109.367 49.4333 109.9 46.5 109.9C43.5667 109.9 42.1 109.467 42.1 108.6C42.1 108.267 42.3333 107.933 42.8 107.6C43.2 107.2 43.6667 106.767 44.2 106.3C44.7333 105.767 45.8333 104.533 47.5 102.6C49.2333 100.6 51 98.3667 52.8 95.9C57.5333 89.3 62.3 81.1 67.1 71.3C67.3 70.9 67.4 70.5667 67.4 70.3L67.2 69.6C62 56.8667 57.3333 48.3333 53.2 44C52.2 43 51.2667 42.3667 50.4 42.1C49.7333 41.7 49.4 41.2 49.4 40.6C49.4 39.4 51.1 38.3667 54.5 37.5C57.9 36.5667 60.5333 36.1 62.4 36.1C64.3333 36.1 65.6667 36.7 66.4 37.9C67.1333 39.1 67.9 40.7333 68.7 42.8C69.5667 44.8667 70.4667 47.0667 71.4 49.4C73.7333 55.3333 75.1 58.6667 75.5 59.4C75.9 60.1333 76.2 60.5 76.4 60.5C76.6667 60.5 76.9 60.3333 77.1 60C81.1667 52.7333 84.6 46 87.4 39.8C87.8667 38.5333 89.1667 37.6667 91.3 37.2C93.5 36.7333 95.9333 36.5 98.6 36.5C101.267 36.5 102.6 36.8667 102.6 37.6C102.6 38 102.367 38.4 101.9 38.8C101.5 39.1333 101.067 39.5 100.6 39.9C100.2 40.2333 99.2667 41.2 97.8 42.8Z" fill="#FF337C"/>
</g>
<path d="M217.2 82.1C218.467 82.1 219.1 83.7 219.1 86.9C219.1 90.1 218.5 92.9667 217.3 95.5C216.1 98.0333 214.633 100 212.9 101.4C211.233 102.8 209.333 103.933 207.2 104.8C200.067 107.933 193.4 107.867 187.2 104.6C184.067 102.933 181.667 100.967 180 98.7C178.333 96.3667 177 93.6 176 90.4C174.467 85.6 173.7 80.5667 173.7 75.3C173.7 70.0333 174.2 65.1 175.2 60.5C176.2 55.9 177.733 51.5333 179.8 47.4C181.867 43.2 184.8 39.8333 188.6 37.3C192.4 34.7667 196.8 33.5 201.8 33.5C203.933 33.5 206.133 33.8667 208.4 34.6C210.733 35.2667 212.633 36.1333 214.1 37.2C215.567 38.2 216.867 39.7667 218 41.9C219.133 44.0333 219.7 46.5333 219.7 49.4C219.7 52.4667 218.967 55.2333 217.5 57.7C216.833 58.8333 215.767 59.8667 214.3 60.8C212.833 61.6667 211.1 62.1 209.1 62.1C206.033 62.1 203.867 60.7333 202.6 58C202.067 56.9333 201.8 55.7667 201.8 54.5C201.8 53.2333 202.233 52.5 203.1 52.3C204.033 52.0333 204.9 51.3 205.7 50.1C206.5 48.9 206.9 47.5 206.9 45.9C206.9 44.6333 206.567 43.5333 205.9 42.6C204.633 40.9333 202.8 40.1 200.4 40.1C198 40.1 195.8 41.2 193.8 43.4C191.867 45.6 190.4 48.3667 189.4 51.7C187.4 58.3667 186.4 64.5 186.4 70.1C186.4 75.7 187.167 80.2 188.7 83.6C190.567 87.8 192.933 90.6 195.8 92C197.6 92.8667 199.667 93.3 202 93.3C205.933 93.3 209.467 91.5333 212.6 88C213.933 86.6 215.033 84.9333 215.9 83C216.233 82.4 216.667 82.1 217.2 82.1ZM237.486 51.3L237.386 61C237.386 61.4 237.519 61.6 237.786 61.6C238.053 61.6 238.319 61.5 238.586 61.3C240.253 60.1667 242.886 59.6 246.486 59.6C252.553 59.6 256.753 61.6667 259.086 65.8C259.953 67.3333 260.386 69.3667 260.386 71.9C260.386 74.4333 260.219 77.9333 259.886 82.4C259.619 86.8667 259.486 90.0333 259.486 91.9C259.486 98.4333 260.419 102.767 262.286 104.9C262.619 105.233 262.786 105.567 262.786 105.9C262.786 106.567 261.353 106.9 258.486 106.9C250.753 106.9 246.886 103.3 246.886 96.1C246.886 93.3 247.553 89.3667 248.886 84.3C250.219 79.2333 250.886 75.5 250.886 73.1C250.886 70.7 250.319 68.8667 249.186 67.6C248.053 66.2667 246.486 65.6 244.486 65.6C242.486 65.6 240.886 66.0333 239.686 66.9C238.553 67.7667 237.853 68.6667 237.586 69.6L237.286 70.9C237.219 72.1667 237.186 76.2 237.186 83C237.186 89.8 237.353 94.2333 237.686 96.3C238.019 98.3 238.186 99.4333 238.186 99.7C238.186 101.633 236.886 103.367 234.286 104.9C231.686 106.367 229.119 107.1 226.586 107.1C225.653 107.1 225.186 106.567 225.186 105.5L225.386 103.6C226.853 92.4 227.586 80.2667 227.586 67.2C227.586 62.1333 227.386 57 226.986 51.8L226.886 49.6C226.753 47.7333 226.353 46.1333 225.686 44.8C225.086 43.4667 224.519 42.6 223.986 42.2L223.086 41.7C222.619 41.4333 222.386 41.1333 222.386 40.8C222.386 39.8667 223.953 38.7333 227.086 37.4C230.219 36 232.619 35.3 234.286 35.3C236.019 35.3 236.953 35.6667 237.086 36.4C237.353 39.8 237.486 44.7667 237.486 51.3ZM299.197 75L298.997 87.8C298.997 96.6667 299.964 102 301.897 103.8C302.164 104.067 302.297 104.367 302.297 104.7C302.297 105.7 300.13 106.2 295.797 106.2C291.53 106.2 289.264 104.933 288.997 102.4C288.93 101.8 288.897 100.567 288.897 98.7L289.297 82.7C289.297 82.2333 289.03 82 288.497 82C285.297 82 282.297 82.9 279.497 84.7C276.697 86.5 275.297 88.8 275.297 91.6C275.297 93.0667 275.697 94.3 276.497 95.3C277.297 96.3 278.264 96.8 279.397 96.8C280.597 96.8 281.564 96.5667 282.297 96.1C283.097 95.6333 283.564 95.3667 283.697 95.3C284.83 95.4333 285.397 96.6333 285.397 98.9C285.397 101.1 284.364 102.9 282.297 104.3C280.23 105.633 278.064 106.3 275.797 106.3C273.53 106.3 271.564 105.9 269.897 105.1C268.297 104.3 267.13 103.4 266.397 102.4C265.664 101.4 265.064 100.267 264.597 99C264.13 97.4667 263.897 96.1333 263.897 95C263.897 90.3333 265.364 86.6 268.297 83.8C271.23 81 274.997 79 279.597 77.8C285.664 76.6 288.83 75.5 289.097 74.5C289.297 73.7667 289.397 72.5333 289.397 70.8C289.397 67.2667 287.597 65.5 283.997 65.5C282.464 65.5 281.097 66 279.897 67C278.697 67.9333 278.097 69.1333 278.097 70.6L278.697 73C278.564 74.1333 277.364 74.8 275.097 75L273.997 75.1C271.997 75.1 270.397 74.6 269.197 73.6C268.064 72.6 267.497 71.2667 267.497 69.6C267.497 68.5333 267.83 67.3667 268.497 66.1C269.23 64.7667 270.13 63.7 271.197 62.9C272.264 62.1 273.897 61.4 276.097 60.8C278.364 60.1333 280.53 59.8 282.597 59.8C284.664 59.8 286.264 59.8667 287.397 60C288.53 60.1333 290.064 60.4667 291.997 61C293.997 61.4667 295.63 62.4 296.897 63.8C298.23 65.2 298.93 66.7 298.997 68.3C299.13 69.8333 299.197 72.0667 299.197 75ZM303.75 66L304.05 62C304.117 61.4 304.583 61.1 305.45 61.1H308.95L308.55 53.1V52.7C308.55 51.1667 309.717 49.7 312.05 48.3C314.383 46.9 316.517 46.2 318.45 46.2C319.05 46.2 319.35 46.4667 319.35 47V47.1C319.083 48.9 318.817 53.5333 318.55 61C321.483 61 323.35 60.9333 324.15 60.8C324.95 60.6667 325.383 60.6 325.45 60.6C325.917 60.6 326.15 61 326.15 61.8C326.15 62.6 325.783 63.6333 325.05 64.9C324.317 66.1 323.517 66.7333 322.65 66.8H318.45C318.383 69.0667 318.35 72.9 318.35 78.3C318.35 83.6333 318.383 88.0333 318.45 91.5C318.583 94.9667 318.717 97.6 318.85 99.4C318.983 101.133 319.117 102.533 319.25 103.6C319.45 104.667 319.583 105.433 319.65 105.9C319.783 106.367 319.85 106.667 319.85 106.8C319.85 107.467 319.417 107.833 318.55 107.9C315.95 107.9 313.35 107.533 310.75 106.8C308.217 106.067 306.95 104.8 306.95 103C308.35 91.8 309.05 79.7667 309.05 66.9C307.25 66.9 305.883 66.9667 304.95 67.1H304.85C304.25 67.1 303.883 66.7333 303.75 66Z" fill="#FF337C"/>
<defs>
<clipPath id="clip0">
<rect width="150" height="150" fill="white" transform="matrix(-1 0 0 1 150 0)"/>
</clipPath>
</defs>
</svg>
